<svg xmlns="http://www.w3.org/2000/svg" viewBox="0 0 2834.55 1737.94"><defs><style>.cls-1{fill:#ebf3fa;}.cls-2{fill:#afcdfb;}.cls-25,.cls-3{fill:#fff;}.cls-3{opacity:0.6;}.cls-4{fill:#699dee;}.cls-5{fill:#dde7fe;}.cls-6{fill:#cde0fb;}.cls-6,.cls-7{opacity:0.5;}.cls-7{fill:#7c9af2;}.cls-8{opacity:0.3;}.cls-9{fill:#bdd1f9;}.cls-10{fill:#f99746;}.cls-11{fill:#ed7d2b;}.cls-12{fill:#474fea;}.cls-13{fill:#b5453c;}.cls-14{fill:#233862;}.cls-15{fill:#2b478b;}.cls-16{fill:#fcecdb;}.cls-17{fill:#548ee2;}.cls-18{fill:#f4d2b8;}.cls-19{fill:#568cdb;}.cls-20{fill:#a4c4f4;}.cls-21{fill:#ed985f;}.cls-22{fill:#ffb27d;}.cls-23{fill:#f9ddbf;}.cls-24{fill:#dd6d22;}.cls-26{fill:#163560;}.cls-27{fill:#1c468a;}.cls-28{fill:#efdece;}.cls-29{fill:#91b5f8;}.cls-30{fill:#ed975d;}.cls-31{fill:#f2ccaa;}.cls-32{fill:#c65447;}.cls-33{fill:#2c3a64;}.cls-34{fill:#2e3552;}</style></defs><g id="Layer_2" data-name="Layer 2"><g id="_лой_1" data-name="‘лой_1"><path class="cls-1" d="M158.47,1737.94l903.89-4.69,240.94-.07,79.82,0,241.4-.07,1102.85-.3s252.25-323.47-17.2-630.7C2430.8,783.55,2295,1043,2209.08,594.59,1992.92-534-144.21,122.86,416.34,1083.27,618.18,1429.08,19,1245.28,158.47,1737.94Z"/><path class="cls-2" d="M990,1502.4l-4.88-2.68a10.8,10.8,0,0,1-4.29-14.64l22.46-41a10.79,10.79,0,0,1,14.64-4.28l7,3.83a2.11,2.11,0,0,1-2,3.71l-7-3.84a6.58,6.58,0,0,0-8.92,2.61l-22.45,41a6.57,6.57,0,0,0,2.6,8.91l4.89,2.68a6.57,6.57,0,0,0,8.91-2.61l14.91-27.22a2.11,2.11,0,1,1,3.7,2l-14.9,27.22A10.8,10.8,0,0,1,990,1502.4Z"/><path class="cls-2" d="M969.19,1545.46l-8.76-4.79c-8.14-4.46-10.87-15.17-6.1-23.89l33.76-61.65a2.11,2.11,0,1,1,3.7,2L958,1518.81c-3.65,6.67-1.67,14.82,4.42,18.15l8.77,4.8c6.09,3.34,14,.62,17.67-6l38.46-70.23c3.65-6.67,1.67-14.82-4.42-18.15a2.11,2.11,0,0,1,2-3.71c8.14,4.46,10.87,15.17,6.1,23.89l-38.45,70.22C987.82,1546.45,977.32,1549.92,969.19,1545.46Z"/><rect class="cls-3" x="689.87" y="275.9" width="1171.24" height="998.42" rx="47.87"/><path class="cls-4" d="M725.61,275.9H1825.37a35.74,35.74,0,0,1,35.74,35.74v75a0,0,0,0,1,0,0H689.87a0,0,0,0,1,0,0v-75a35.74,35.74,0,0,1,35.74-35.74Z"/><path class="cls-5" d="M737.24,330.62a13.25,13.25,0,1,1,13.24,13.25A13.24,13.24,0,0,1,737.24,330.62Z"/><path class="cls-5" d="M792.83,330.62a13.25,13.25,0,1,1,13.25,13.25A13.25,13.25,0,0,1,792.83,330.62Z"/><path class="cls-5" d="M848.42,330.62a13.25,13.25,0,1,1,13.25,13.25A13.25,13.25,0,0,1,848.42,330.62Z"/><rect class="cls-6" x="782.69" y="474.59" width="332.01" height="332.01"/><path class="cls-7" d="M1469.06,499.34H1205a12.55,12.55,0,0,1-12.55-12.55h0A12.54,12.54,0,0,1,1205,474.25h264.08a12.54,12.54,0,0,1,12.55,12.54h0A12.55,12.55,0,0,1,1469.06,499.34Z"/><path class="cls-7" d="M1784.86,482.51H1520.77A12.55,12.55,0,0,1,1508.23,470h0a12.55,12.55,0,0,1,12.54-12.54h264.09A12.55,12.55,0,0,1,1797.41,470h0A12.55,12.55,0,0,1,1784.86,482.51Z"/><g class="cls-8"><path class="cls-9" d="M1521.34,595.93H1200.56a8.13,8.13,0,0,1-8.13-8.13h0a8.13,8.13,0,0,1,8.13-8.13h320.78a8.13,8.13,0,0,1,8.13,8.13h0A8.13,8.13,0,0,1,1521.34,595.93Z"/><path class="cls-9" d="M1643.28,595.93H1558.6a8.13,8.13,0,0,1-8.13-8.13h0a8.13,8.13,0,0,1,8.13-8.13h84.68a8.13,8.13,0,0,1,8.13,8.13h0A8.13,8.13,0,0,1,1643.28,595.93Z"/><path class="cls-9" d="M1321.59,646.37h-121a8.13,8.13,0,0,1-8.13-8.13h0a8.13,8.13,0,0,1,8.13-8.13h121a8.14,8.14,0,0,1,8.14,8.13h0A8.14,8.14,0,0,1,1321.59,646.37Z"/><path class="cls-9" d="M1517.63,646.37H1351.78a8.13,8.13,0,0,1-8.13-8.13h0a8.13,8.13,0,0,1,8.13-8.13h165.85a8.13,8.13,0,0,1,8.13,8.13h0A8.13,8.13,0,0,1,1517.63,646.37Z"/><path class="cls-9" d="M1643.28,646.37H1558.6a8.13,8.13,0,0,1-8.13-8.13h0a8.13,8.13,0,0,1,8.13-8.13h84.68a8.13,8.13,0,0,1,8.13,8.13h0A8.13,8.13,0,0,1,1643.28,646.37Z"/><path class="cls-9" d="M1364.79,690H1200.56a8.13,8.13,0,0,1-8.13-8.13h0a8.13,8.13,0,0,1,8.13-8.13h164.23a8.13,8.13,0,0,1,8.13,8.13h0A8.13,8.13,0,0,1,1364.79,690Z"/><path class="cls-9" d="M1678.4,690H1409.8a8.13,8.13,0,0,1-8.13-8.13h0a8.13,8.13,0,0,1,8.13-8.13h268.6a8.13,8.13,0,0,1,8.13,8.13h0A8.13,8.13,0,0,1,1678.4,690Z"/></g><g class="cls-8"><path class="cls-9" d="M1521.34,756.16H1200.56a8.13,8.13,0,0,1-8.13-8.13h0a8.13,8.13,0,0,1,8.13-8.13h320.78a8.13,8.13,0,0,1,8.13,8.13h0A8.13,8.13,0,0,1,1521.34,756.16Z"/><path class="cls-9" d="M1643.28,756.16H1558.6a8.13,8.13,0,0,1-8.13-8.13h0a8.13,8.13,0,0,1,8.13-8.13h84.68a8.13,8.13,0,0,1,8.13,8.13h0A8.13,8.13,0,0,1,1643.28,756.16Z"/><path class="cls-9" d="M1321.59,806.6h-121a8.13,8.13,0,0,1-8.13-8.13h0a8.13,8.13,0,0,1,8.13-8.13h121a8.14,8.14,0,0,1,8.14,8.13h0A8.14,8.14,0,0,1,1321.59,806.6Z"/><path class="cls-9" d="M1517.63,806.6H1351.78a8.13,8.13,0,0,1-8.13-8.13h0a8.13,8.13,0,0,1,8.13-8.13h165.85a8.13,8.13,0,0,1,8.13,8.13h0A8.13,8.13,0,0,1,1517.63,806.6Z"/></g><path class="cls-9" d="M931.55,524.08h34.29l92.64,212h-39.1L998,685.3H898.47l-21.66,50.83H838.92Zm52.94,128.43L948.1,568.3,912,652.51Z"/><rect class="cls-10" x="782.69" y="873.48" width="185.46" height="35.8"/><rect class="cls-11" x="782.69" y="909.28" width="185.46" height="35.8"/><rect class="cls-12" x="782.69" y="945.09" width="185.46" height="35.8"/><path class="cls-9" d="M1104.81,893.75h-102A7.73,7.73,0,0,1,995,886h0a7.73,7.73,0,0,1,7.73-7.73h102a7.73,7.73,0,0,1,7.73,7.73h0A7.73,7.73,0,0,1,1104.81,893.75Z"/><path class="cls-9" d="M1070.43,921h-67.67a7.73,7.73,0,0,1-7.73-7.73h0a7.73,7.73,0,0,1,7.73-7.73h67.67a7.73,7.73,0,0,1,7.73,7.73h0A7.73,7.73,0,0,1,1070.43,921Z"/><rect class="cls-10" x="782.69" y="1058.6" width="185.46" height="73.16"/><rect class="cls-13" x="782.69" y="1113.69" width="185.46" height="52.32"/><polygon class="cls-12" points="782.69 1058.6 849.23 1114.49 782.69 1166.02 782.69 1058.6"/><path class="cls-9" d="M1104.81,1078.87h-102a7.73,7.73,0,0,1-7.73-7.73h0a7.73,7.73,0,0,1,7.73-7.73h102a7.73,7.73,0,0,1,7.73,7.73h0A7.73,7.73,0,0,1,1104.81,1078.87Z"/><path class="cls-9" d="M1070.43,1106.13h-67.67a7.73,7.73,0,0,1-7.73-7.73h0a7.74,7.74,0,0,1,7.73-7.74h67.67a7.74,7.74,0,0,1,7.73,7.74h0A7.73,7.73,0,0,1,1070.43,1106.13Z"/><path class="cls-14" d="M1872.94,366.31s4.83,57.57-8.29,56.7-39-26.21-91.27-22.09-116.2,15.55-154.85-52.84S1668,260,1668,260l205,106.31Z"/><polygon class="cls-15" points="1761.85 362.1 2025.17 383.75 2030.65 372.04 1778.19 185.69 1523.18 155.89 1518.28 166.38 1761.85 362.1 1761.85 362.1"/><path class="cls-10" d="M1941.05,560.41a10.21,10.21,0,1,0-7,12.62,10.21,10.21,0,0,0,7-12.62Z"/><path class="cls-10" d="M1932.27,563.24c10.57-.82,13,95.28,13,95.28s-6.88,3.24-10.27,2.48-5.11-13.74-5.11-13.74l-.33,13.61s-11.58.4-15.6-2.42c0,0,1.57-93.9,18.28-95.21Z"/><polygon class="cls-10" points="1935.72 565.41 1933.81 355.45 1932.45 354.43 1794.9 252.69 1789.96 259.37 1926.14 360.1 1929.21 565.04 1935.72 565.41"/><path class="cls-16" d="M1534.69,1336.17H2115.1a84.94,84.94,0,0,1,84.94,84.94v48a86.87,86.87,0,0,1-86.87,86.87H1534.69a0,0,0,0,1,0,0V1336.17A0,0,0,0,1,1534.69,1336.17Z"/><path class="cls-4" d="M2696.29,1426.6v33.06a100.93,100.93,0,0,1-12.2,48.44c-15.59,28.62-44.58,47.85-77.78,47.85H1516.87c-7.21,0-13-6.25-13-14v-5c0-7.7,5.84-14,13-14H2181a91.12,91.12,0,0,0,9.32-15,94.39,94.39,0,0,0,9.73-42v-42a93.27,93.27,0,0,0-2.69-22.36A90,90,0,0,0,2182,1369H1516.87c-7.21,0-13-6.25-13-14v-4.94c0-7.71,5.84-14,13-14H2611.8c38.59,0,71.13,27.69,81.23,65.52A96.29,96.29,0,0,1,2696.29,1426.6Z"/><path class="cls-17" d="M2693,1401.68H2197.35A90,90,0,0,0,2182,1369H1516.87c-7.21,0-13-6.25-13-14v-4.94c0-7.71,5.84-14,13-14H2611.8C2650.39,1336.16,2682.93,1363.85,2693,1401.68Z"/><polygon class="cls-18" points="1534.69 1446.06 1615.36 1449.76 1534.69 1451.98 1534.69 1446.06"/><polygon class="cls-18" points="1534.69 1480.55 1726.6 1484.24 1534.69 1486.47 1534.69 1480.55"/><path class="cls-10" d="M1368.12,1555.49H1936a82,82,0,0,1,82,82v11.88a77,77,0,0,1-77,77H1368.12a0,0,0,0,1,0,0v-171A0,0,0,0,1,1368.12,1555.49Z" transform="translate(3386.16 3281.95) rotate(180)"/><path class="cls-16" d="M1910.57,1555.49h647.21a80.1,80.1,0,0,1,80.1,80.1v12.53a78.33,78.33,0,0,1-78.33,78.33h-649a0,0,0,0,1,0,0v-171A0,0,0,0,1,1910.57,1555.49Z" transform="translate(4548.46 3281.95) rotate(180)"/><rect class="cls-10" x="1855.92" y="1700.88" width="815.71" height="25.57" rx="11.9" transform="translate(4527.54 3427.34) rotate(180)"/><rect class="cls-10" x="1855.92" y="1555.49" width="815.71" height="25.57" rx="11.9" transform="translate(4527.54 3136.56) rotate(180)"/><polygon class="cls-18" points="2637.89 1640.97 2549.71 1643.85 2637.89 1645.58 2637.89 1640.97"/><polygon class="cls-18" points="2637.89 1601.63 2428.11 1604.5 2637.89 1606.23 2637.89 1601.63"/><path class="cls-4" d="M2430.27,1603.93a39.68,39.68,0,0,1,12,19.42,31,31,0,0,1,.93,6.76c.5,16,0,52.34,0,52.34l26.55-18.15,26.47,18.15v-49.2c0-9.31-2.27-18.36-6.49-24.29-2-2.87-4.52-5-7.33-5Z"/><path class="cls-19" d="M2430.27,1603.93a39.68,39.68,0,0,1,12,19.42l53.19.72s-2.09-17.29-13.06-20.14Z"/><path class="cls-16" d="M1388.72,1085.45h561a89.81,89.81,0,0,1,89.81,89.81v69.53a91.84,91.84,0,0,1-91.84,91.84H1388.72a0,0,0,0,1,0,0V1085.45A0,0,0,0,1,1388.72,1085.45Z"/><path class="cls-2" d="M2039.81,1182.91V1237c-.14,23.09-10.84,43.12-26.57,53.83a46.44,46.44,0,0,1-26.19,8.26H1371.6c-7.21,0-13.06,7-13.06,15.6V1321c0,8.62,5.85,15.6,13.06,15.6H2434.8c30.51,0,57.46-18.11,73.75-45.83a121.91,121.91,0,0,0,16.29-61.71v-42.65a117,117,0,0,0-8.39-43.92c-13.68-33.77-42.63-57.06-76.15-57.06H1371.6c-7.21,0-13.06,7-13.06,15.58v6.38c0,8.62,5.85,15.6,13.06,15.6h617.33c14.75,0,28.11,7.5,37.44,19.5A66.54,66.54,0,0,1,2039.81,1182.91Z"/><path class="cls-20" d="M1358.54,1314.66V1321c0,8.62,5.85,15.6,13.06,15.6H2434.8c30.51,0,57.46-18.11,73.75-45.83H2013.24a46.44,46.44,0,0,1-26.19,8.26H1371.6C1364.39,1299.06,1358.54,1306,1358.54,1314.66Z"/><polygon class="cls-18" points="1388.72 1211.04 1467.62 1215.26 1388.72 1217.81 1388.72 1211.04"/><polygon class="cls-18" points="1388.72 1153.24 1576.43 1157.46 1388.72 1160 1388.72 1153.24"/><path class="cls-10" d="M1574.49,1156.62s-12.38,8-16.49,21.06a27.5,27.5,0,0,0-1.28,7.32c-.68,17.39,0,56.76,0,56.76l-36.57-19.68-36.48,19.68v-53.35c0-10.09,3.13-19.91,8.94-26.33,2.82-3.12,6.24-5.46,10.1-5.46Z"/><path class="cls-11" d="M1574.49,1156.62s-12.38,8-16.49,21.06l-73.29.78s2.88-18.75,18-21.84Z"/><g id="girl_2" data-name="girl 2"><path class="cls-21" d="M640.24,1314.41s114.56,49.92,135.36,49,148.94-39,148.94-39l-3.26,22s-98.89,56.88-133.47,60.11c-34,3.17-150.43-30.55-161.67-37.68S607.58,1321.62,640.24,1314.41Z"/><path class="cls-14" d="M623,1130.79s-42.26-8-63.31,7.34C521.58,1166,519.53,1262,505.24,1276.28s-48.74,8.2-51.81,82.19,13.72,80.19-6.27,113.22,8.45,66.09,8.45,66.09S444,1519.55,449,1506.39c0,0,4.85,29,23.3,35.85s21.18,11.8,24.13,21.79c0,0,157.43-80.67,157.6-137.89s31-113.89,15.85-138.68c0,0,6.74,10.6,7.56,22.4,0,0,9.08-17.39-6.65-33.58s18.45-49.7,13.39-88.51C680.66,1161.13,662,1132,623,1130.79Z"/><path class="cls-22" d="M654.16,1368.93c-10.06,7-22.68,12.73-38.52,16.39-59.37,13.71-82.12-36.46-90.67-70.91a51.2,51.2,0,0,1,20.12-6.18c4.29-.5,8.8-.84,12.54-1,6.67-5.1,16.6-26,18.8-58.45l2.79.75L626,1262.31s-2.14,14.87-3.19,28.93c-.82,11-.94,21.51,1.14,24.09,3.65.79,5.84,1.31,5.84,1.31l0,0A301.07,301.07,0,0,1,654.16,1368.93Z"/><path class="cls-21" d="M626,1262.32s-2.15,14.86-3.19,28.93c-26.51-2.66-38.81-27.89-43.6-41.74Z"/><path class="cls-22" d="M633.93,1276.28s-62.92-3.47-60.16-42.62-3.49-66,36.8-65.41,47,16,49.29,29.35S650.37,1276.17,633.93,1276.28Z"/><path class="cls-14" d="M659.55,1175.69c-8.87-12.47-16.4-10.41-20.76-7.17-33-21.34-57.14,5-57.14,5-6.22,27.79-27.63,42.42-27.63,42.42s11,7.9,37.84,3c8.22-1.5,15.83-6.72,22.45-13.23a146.88,146.88,0,0,1-27.44,29c32.59-12.32,48.4-55.28,50-59.83,3.59,3.72,10.61,11.75,12.39,19.25,2.42,10.19,12.85,26.13,18.88,25.86C668.14,1220,672.85,1194.4,659.55,1175.69Z"/><path class="cls-23" d="M507.05,1496.85c-5.68-29-24.21-145.1-5.68-182.44,6.65-13.42,32.76-14.63,61.41-13.45,8.91,5.76,42.88,27.5,56.83,24.79l.78-.19c6.57-1.64,9.05-6.25,3.57-10.23a124.94,124.94,0,0,1,31.81,2c10,1.87,36.79,15.76,36.79,15.76s-13.52,24.42-33.45,32.85c3.39,30.32-1.65,43.69-33.1,113.72-26.58,59.19,3.59,112.48,3.59,112.48s-156.46,125.8-157.33,61.75C471.61,1605.62,514.31,1534,507.05,1496.85Z"/><path class="cls-24" d="M637.35,1728.87a29.09,29.09,0,0,0,20.93-12.73l2.42-3.65c17.8-27,24.73-109.52,64.79-197.48,9.76-21.41,44.78-25.26,54.33-49.47,0,0,23.51-78.46-45-80.78s-183.44,218.32-185.26,241.45C547.81,1648.63,504.29,1743.89,637.35,1728.87Z"/><path class="cls-14" d="M909.6,1727.07H812.11s-3.65-15.55,2.75-26.13c5.67-9.36,3.5-14.7-.7-22.44a37.86,37.86,0,0,0,16.42,3.09c4.86-.28,10-2.48,14.5-5.1,4.19,4.78,22.16,25.15,27.78,29.18C879.23,1710.25,907.64,1708.62,909.6,1727.07Z"/><path class="cls-11" d="M782.05,1407.44c5.87,44,28.8,182.93,69.24,250.7,13,21.85-32.85,34.1-33.1,34-6.15-1.61-16.4-11.42-21.13-15.68-32.83-29.59-99.48-113.37-99.48-180.54,0-32.76-.57-95.31,23.24-111.21C735.49,1375,779.72,1390,782.05,1407.44Z"/><path class="cls-10" d="M579.22,1727.07s3.61-5,9.91-14.58c7.5-11.35,15.79-33.7,25.86-62.35,10.57-30.07,23.12-67.07,38.8-105.57,4.83-11.88,10-23.91,15.44-35.92,9.75-21.41,36.6-18.45,46.15-42.66,0,0,37.26-83.92-31.24-86.23S485.48,1604.25,478,1626.21C469.82,1650.26,429.87,1750.11,579.22,1727.07Z"/><path class="cls-15" d="M838,1727.07H740.54s-3.65-15.55,2.75-26.13c5.67-9.36,3.5-14.7-.7-22.44a37.86,37.86,0,0,0,16.42,3.09c4.86-.28,10-2.48,14.5-5.1,4.2,4.78,22.16,25.15,27.78,29.18C807.66,1710.25,836.07,1708.62,838,1727.07Z"/><path class="cls-11" d="M615,1650.14c10.57-30.07,23.12-67.07,38.8-105.57-4.1-29.16-12.93-54.68-27.78-65C626,1479.61,590,1591.22,615,1650.14Z"/><path class="cls-10" d="M725.14,1404.32c5.87,44,14.14,186,54.58,253.82,13,21.85-32.85,34.1-33.09,34-6.16-1.61-16.41-11.42-21.14-15.68C692.66,1646.9,626,1563.12,626,1496c0-32.76,38.44-92.68,62.26-108.58C702.93,1377.58,722.81,1386.84,725.14,1404.32Z"/><path class="cls-25" d="M645.71,1253.76s-6-2.35-22.69-1c0,0,.89,6.53,13.23,7.17C643.25,1260.31,645.71,1253.76,645.71,1253.76Z"/><polygon class="cls-26" points="936.77 1278.27 916.56 1241.8 872.83 1363.82 898.63 1391.51 936.77 1278.27"/><polygon class="cls-27" points="831.23 1299.63 790.59 1415.74 898.63 1391.51 936.77 1278.27 831.23 1299.63"/><polygon class="cls-28" points="792.74 1409.89 790.85 1406.58 829.31 1296.69 831.23 1299.63 792.74 1409.89"/><polygon class="cls-16" points="829.31 1296.69 931.74 1276.76 936.77 1278.27 831.23 1299.63 829.31 1296.69"/><polygon class="cls-28" points="936.77 1278.27 914.91 1243.58 900.98 1282.74 931.74 1276.76 936.77 1278.27"/><path class="cls-22" d="M862.43,1316.44c-3.52-.67-11-3.51-18.69-5.61,2.28-1.77,4.82-3.94,5.52-6.18,1.37-4.3,2.27-5.68-2.26-4.32s-20.42,8.65-20.42,8.65l0,0c-9,2.63-17.34,15.39-17.34,15.39s-111.7,39.26-125.14,39.94c-20.79,1-159.17-49.92-159.17-49.92-32.65,7.21-25.33,47.33-14.09,54.45s110.81,43.35,169.82,44c29.89.34,138.61-69.53,138.61-69.53s12.71-5.81,22.69-4,33.13,0,38.13-8.17S868.33,1317.58,862.43,1316.44Z"/><path class="cls-23" d="M596.27,1339.54s-12.38,39.18-54.88,48.1c0,0-70.19-21.63-35.25-69.45C506.14,1318.19,540.7,1292.52,596.27,1339.54Z"/><path class="cls-22" d="M935,1319.39h0a10.62,10.62,0,0,0-.37-3.18s-10-15.84-13.29-16.49c-10-2-10,11.18-7.87,19.66a34.51,34.51,0,0,0,8.27,14.65h0l-.4,12.39C938.15,1337.16,935,1319.39,935,1319.39Z"/></g><path class="cls-1" d="M348.52,1112.59c4-98.75-78.78-142.62-163.42-142.62S8.37,991.89.39,1123.21c-5.13,84.47,39.9,136.45,169.57,136.45,43.74,0,77.73-6.89,103.76-19.19l64.82,57.59-31.85-79.61C334.91,1192.21,346.79,1155.21,348.52,1112.59Z"/><path class="cls-29" d="M120.8,1079.57v23.07h15.09v-23.07H142v53.81h-6.15v-25.15H120.8v25.15h-6.15v-53.81Z"/><path class="cls-29" d="M155.13,1114.62c0,11.89,4.71,14.37,9.1,14.37a13.75,13.75,0,0,0,6.39-1.44l1,4.47a19.75,19.75,0,0,1-8.54,1.84c-9.26,0-14.05-7.59-14.05-19.4,0-12.46,5.35-20.28,13.09-20.28s11,8.3,11,16.92c0,1.52-.08,2.56-.16,3.52Zm12.13-4.55c.08-7.67-2.79-11.1-5.74-11.1-4.08,0-6.07,5.83-6.31,11.1Z"/><path class="cls-29" d="M179.8,1078.14h6.14v55.24H179.8Z"/><path class="cls-29" d="M195,1078.14h6.15v55.24H195Z"/><path class="cls-29" d="M234,1114.06c0,14.93-6.86,20-12.85,20-7,0-12.53-6.31-12.53-19.88,0-14.05,6.3-20,12.93-20C228.49,1094.18,234,1100.65,234,1114.06Zm-19.24,0c0,6.38,1.12,15.09,6.71,15.09,5.27,0,6.38-9,6.38-15.09,0-5.91-1.11-15-6.54-15S214.76,1108.15,214.76,1114.06Z"/><path class="cls-29" d="M2043.76,816.22c3.64-90.28-72-130.39-149.4-130.39s-161.57,20-168.87,140.09c-4.69,77.23,36.48,124.76,155,124.76,40,0,71.06-6.31,94.86-17.56l59.26,52.66L2005.52,913C2031.31,889,2042.18,855.18,2043.76,816.22Z"/><path class="cls-25" d="M1804.76,800.56a31,31,0,0,1,7.56-.88c4.12,0,7.63.88,10.06,3.17a10.29,10.29,0,0,1,3,7.77,10.43,10.43,0,0,1-7,10.06v.2c5.27,1.42,8.44,5.67,8.44,11.62a13,13,0,0,1-3.24,9c-2.56,2.91-6.82,4.12-12,4.12a36.54,36.54,0,0,1-6.75-.47Zm5.13,18.63h2.36a7.81,7.81,0,0,0,7.9-8c0-4.19-2-7.43-7.49-7.43a9.34,9.34,0,0,0-2.77.34Zm0,22.08a11.83,11.83,0,0,0,2.63.27c5.34,0,8.85-3.17,8.85-9,0-6.28-4.32-9.25-9.18-9.32h-2.3Z"/><path class="cls-25" d="M1853,829.05c0,12.63-5.8,16.88-10.87,16.88-5.87,0-10.6-5.33-10.6-16.81,0-11.88,5.33-16.88,10.94-16.88C1848.31,812.24,1853,817.71,1853,829.05Zm-16.27,0c0,5.41.94,12.76,5.67,12.76,4.46,0,5.4-7.63,5.4-12.76s-.94-12.69-5.53-12.69S1836.7,824.06,1836.7,829.05Z"/><path class="cls-25" d="M1858.78,821.15c0-3.85-.2-5.81-.27-8.44H1863l.27,4h.13a8.29,8.29,0,0,1,7.5-4.46c4.52,0,7.9,3.31,7.9,11.21v21.94h-5.2v-21c0-3.91-.75-7.76-4.53-7.76-2.16,0-4.25,1.82-4.86,5.27a12.85,12.85,0,0,0-.27,3v20.52h-5.2Z"/><path class="cls-25" d="M1880.6,854.78a7.08,7.08,0,0,0,4.38-2.57c1.15-1.75,1.56-4.18,1.56-10.4v-29.1h5.2V843.3c0,6.89-1,10.06-3.31,12.49a11.42,11.42,0,0,1-7.16,3.11Zm11.61-50.51a3.09,3.09,0,1,1-6.15,0,3.14,3.14,0,0,1,3.11-3.38C1891,800.89,1892.21,802.24,1892.21,804.27Z"/><path class="cls-25" d="M1918.88,829.05c0,12.63-5.81,16.88-10.87,16.88-5.87,0-10.6-5.33-10.6-16.81,0-11.88,5.33-16.88,10.94-16.88C1914.22,812.24,1918.88,817.71,1918.88,829.05Zm-16.27,0c0,5.41.94,12.76,5.67,12.76,4.46,0,5.4-7.63,5.4-12.76s-.94-12.69-5.53-12.69S1902.61,824.06,1902.61,829.05Z"/><path class="cls-25" d="M1944.27,836.48c0,3.58.21,6.48.27,8.91H1940l-.41-3.44h-.13a8.37,8.37,0,0,1-7,4c-5.67,0-8-4.45-8-12.56V812.71h5.2v19.92c0,5.13.81,8.91,4.38,8.91,3,0,4.39-2.83,4.66-4.32a13,13,0,0,0,.27-3V812.71h5.2Z"/><path class="cls-25" d="M1951.5,821.15c0-2.77-.2-6-.27-8.44h4.66l.27,5.2h.13c1.09-3.11,3.85-5.67,6.89-5.67a5.2,5.2,0,0,1,1.08.07v5.26h-1.08c-3.31,0-5.74,3-6.28,6.76a20.51,20.51,0,0,0-.2,3v18.09h-5.2Z"/><path class="cls-14" d="M2019.68,1292.56c18.36,32.48,41.65,45.14,41.65,45.14l97.26.68S2005.67,1267.78,2019.68,1292.56Z"/><path class="cls-22" d="M2092.61,1543.4c2.52,2.92,2.82,6.17,1.54,9.63a.09.09,0,0,1,0,0c-2.36,6.39-10.08,13.49-19,20.58-1.14.91-2.16,1.74-3.05,2.51-.23.2-.47.4-.68.6l-.53.47c-8.36,7.59-5.25,9.37-20.27,24.79-17.13,17.58-28.84,17.81-32.16,16.18-2.81-1.4,3-10.74,9.4-21.24.31-.51.62-1,.94-1.53l2.55-4.22c7.52-12.64,5.66-18.61,4-37.52-1.33-15.36-23.28-85.93-23.28-85.93l32.63-5.39s9.42,56.14,20.17,64.85c5.75,4.65,12.22,4.75,17.75,8.2.39.24.78.49,1.15.74A42.74,42.74,0,0,1,2092.61,1543.4Z"/><path class="cls-14" d="M2092.61,1543.4c2.52,2.92,2.82,6.17,1.54,9.63a.09.09,0,0,1,0,0c-2.88,6.38-10.41,13.45-19.06,20.52-1.13.92-2.13,1.77-3,2.57-.23.2-.47.4-.68.6l-.53.47c-8.36,7.59-5.25,9.37-20.27,24.79-17.13,17.58-28.84,17.81-32.16,16.18-2.81-1.4,3-10.74,9.4-21.24a72.46,72.46,0,0,0,30.47-22.13c10.33-13,17.28-29.73,24.32-39.41.39.24.78.49,1.15.74A42.74,42.74,0,0,1,2092.61,1543.4Z"/><path class="cls-22" d="M1830,1521.19c-2.08,10-16.41,8.27-32.4,4.24s-12.22.65-35-2-29.63-11.24-30.31-14.63c-.6-3,10.68-4,22.77-5.3,1.52-.16,3-.34,4.58-.52,13.65-1.61,23.71-10.35,36.15-17.49,11.79-6.77,29.5-34.55,29.5-34.55l31.25,2.7s-16.58,24.81-23,35.6c-3.78,6.35-3.64,14.78-3.22,21.29A40.33,40.33,0,0,1,1830,1521.19Z"/><path class="cls-14" d="M1797.57,1525.43c-16-4-12.22.65-35-2s-29.63-11.24-30.31-14.63c-.6-3,10.68-4,22.77-5.3l.11.23a64.32,64.32,0,0,0,32.58,10.38c15.47.48,31.88-3.83,42.57-3.58a40.33,40.33,0,0,1-.32,10.69C1827.89,1531.24,1813.56,1529.46,1797.57,1525.43Z"/><path class="cls-14" d="M1951.21,1322.1l28.68,78.86,37.43,103a61.93,61.93,0,0,0,20.29-1.71c9.15-2.57,19.68-9.41,19.68-9.41s-9.82-110.34-29.14-173.78c-5-16.29-10.54-29.47-16.75-36.91C1981,1245.69,1951.21,1322.1,1951.21,1322.1Z"/><path class="cls-15" d="M1981.81,1197.39c19.2-6,73.76,2.27,128.55,13.4l11.62-18.87,118.58-8.41s38.49,87,16.69,142.1c-3.2,8.1-11,11.47-21.68,11.57h0s-70.73,1.23-93.63,1.07c-58.94-.42-124.44-41.39-132.94-43.16-13.92-2.88-19.68,24.94-33.82,54.1s-131.87,128.63-131.87,128.63-18,.05-25.39-2.78c-8-3.06-10.87-7-10.87-7S1938.53,1211,1981.81,1197.39Z"/><path class="cls-14" d="M2123.83,1028.73c42,23.53,127.31,72.3,127.75,72,0,0,31.39,12.08,49.32.35,29.9-19.55,46.23-72.61-7.86-118.76-27-23-46.22-28.71-48.89-65.18-1.45-19.78-28-85.23-73-79.51a68.2,68.2,0,0,1-11.33.66A42.06,42.06,0,0,0,2137,844C2111.5,859,2060.63,1019.28,2123.83,1028.73Z"/><path class="cls-22" d="M2159.34,1009.2c-.19.11,20.71,7.41,34.76,1.31,13.22-5.73,23.36-27.34,23.16-27.36-6-.31-12.53-5.6-17.36-40l-2.56.9-43,15.14s3,13.8,4.93,26.92C2160.86,997.1,2161.69,1007.66,2159.34,1009.2Z"/><path class="cls-30" d="M2154.31,959.16s1.84,9.67,4.38,23.48c24.69-4.26,35.09-25.32,38.65-38.62Z"/><path class="cls-22" d="M2147.82,972.79s58.78-7.47,53.57-44-1.14-62.1-38.89-58.88-43,18.2-44.26,30.82S2132.4,973.79,2147.82,972.79Z"/><path class="cls-14" d="M2120.52,880.74s37.36,32.66,62.91,35.45,35.29-5.35,35.29-5.35A99.89,99.89,0,0,1,2194.81,878a18,18,0,0,0-14.74-10.7C2161.82,865.56,2127.21,864.59,2120.52,880.74Z"/><path class="cls-14" d="M2144,878s-12.66,12.07-16.69,21.06c-3.88,8.68-5.17,29.49-2.19,37.78,0,0-19.32-38.24-8.1-56.67C2129,860.62,2144,878,2144,878Z"/><path class="cls-23" d="M2109.28,1095.35c.94,118.88-.18,94,12.75,105.41,3.11,2.73,11.91,4.41,23.5,5.26,36.43,2.68,100.54-2.87,103-9.59,8.57-23.25,2.69-30.53,10-66.17.76-3.79,1.69-7.89,2.79-12.36,6-24.46,11.77-32.76-8.7-72.28-18.57-35.8-37.91-64.88-39.67-63.85-49.86,29.12-53.68,4.32-53.68,4.32S2108.82,1037.36,2109.28,1095.35Z"/><path class="cls-15" d="M1979.89,1401l37.43,103a61.93,61.93,0,0,0,20.29-1.71c9.15-2.57,19.68-9.41,19.68-9.41s-9.82-110.34-29.14-173.78Z"/><path class="cls-23" d="M2159.24,986.08s-51.14,8.3-57.29,30.25l-42.37,151s25.94,4.85,38-7.06,42.53-111,42.53-111Z"/><path class="cls-31" d="M2145.53,1206c36.43,2.68,100.54-2.87,103-9.59,8.57-23.25,2.69-30.53,10-66.17l-17.23-49.63s2.52,55.15-13.84,69.54-66.76,27.52-74.75,39.57C2148.84,1195.53,2146.29,1201.35,2145.53,1206Z"/><path class="cls-22" d="M2187.45,1183.13s-35.9-8.26-41.73-5.11-20.08,14.67-21.89,18.7,12.94-3,17.73-4.22c3.1-.81,11.23,2.08,15.25,3.45,16.93,5.78,27.35,2.94,27.35,2.94Z"/><path class="cls-23" d="M2213,981.74s48.26,3.32,64.81,26.75c23.3,33,69,173.17,42.1,191.63-30.27,20.8-137.14,4.53-137.14,4.53s-3.44-16.66,1.57-24.68,85.59-20.45,89.33-24.14-45.92-72.77-45.85-83.92S2213,981.74,2213,981.74Z"/><path class="cls-22" d="M2143.91,1188s-7.6,9.66-10.08,10.81a7.39,7.39,0,0,1-4.07.84l5.14-9.11Z"/><path class="cls-22" d="M2145.72,1178l-22,10.48s.92,1.54,3.62,1.43,9.52-2.54,9.52-2.54Z"/><polygon class="cls-10" points="2138.52 1214.51 1965.23 1213.29 1914.02 1083.3 2087.04 1084.52 2138.52 1214.51"/><polygon class="cls-11" points="1963.24 1208.22 2192.06 1209.84 2192.03 1214.89 1965.23 1213.29 1963.24 1208.22"/><path class="cls-25" d="M2009.43,1148.79c-1.27-4.57,1.39-8.24,6-8.21s9.28,3.76,10.55,8.32-1.38,8.24-5.94,8.21S2010.71,1153.35,2009.43,1148.79Z"/><rect class="cls-32" x="1296.33" y="1412.69" width="104.67" height="526.5" transform="translate(-327.55 3024.27) rotate(-89.99)"/><path class="cls-16" d="M1085.4,1728.23,1008,1695.12l-45-19.25,46.07-19.69,76.35-32.62s10.18,25.48,10.34,49.45C1096,1710.62,1085.4,1728.23,1085.4,1728.23Z"/><path class="cls-16" d="M1673.12,1658.39v33.09a36.85,36.85,0,0,1-36.86,36.85H1611.9l0-104.66h26.48A34.74,34.74,0,0,1,1673.12,1658.39Z"/><path class="cls-15" d="M1009.08,1656.18c1.91,10.58,3.58,26.78-1.06,38.94l-45-19.25Z"/><path class="cls-10" d="M1198.6,1078.6s9.43,40.92,36.92,40.92c23.56,0,55.89-53.27,55.89-53.27Z"/><path class="cls-15" d="M1514.21,1683l-17.66,12.15s-85-90.54-105.45-177.33c-3.66-15.49-5.14-30.78-3.57-45.27,0,0-1.24-3.93-3.41-10.88-.1-.31-.19-.62-.29-.93-.95-3-2.09-6.64-3.36-10.7-4.11-13.11-9.77-31.06-16.22-51.49-14.84-47-48.8-153.06-63.3-197.16l104.28-37.73s11.84,27,28.86,100.42c2.62,9.58,5.25,20.18,7.7,31.72,2.78,13.08,5.38,27.38,7.54,42.82a656.92,656.92,0,0,1,6.25,87.91c.06,13.13-.26,26.75-1,40.81-.57,10.3,1,24,3.83,39.66C1471.51,1578.41,1514.21,1683,1514.21,1683Z"/><path class="cls-14" d="M1569.76,1726.62h-84.3s-3.15-13.44,2.38-22.6c4.9-8.09,3-12.7-.61-19.4a32.68,32.68,0,0,0,14.2,2.67c4.2-.24,8.64-2.14,12.54-4.41,3.63,4.14,19.17,21.75,24,25.24C1543.5,1712.08,1568.07,1710.67,1569.76,1726.62Z"/><path class="cls-14" d="M1449.33,1338.61l-65.5,122.12c-.95-3-2.09-6.64-3.36-10.7-4.11-13.11-9.77-31.06-16.22-51.49-14.84-47-48.8-153.06-63.3-197.16l104.28-37.73s11.84,27,28.86,100.42c2.62,9.58,5.25,20.18,7.7,31.72C1444.57,1308.87,1447.17,1323.17,1449.33,1338.61Z"/><path class="cls-14" d="M1299.25,1700.23s-5.84,14.32-.34,26.39h45.86s1-10.89-15.69-23.51C1316.47,1693.55,1299.25,1700.23,1299.25,1700.23Z"/><path class="cls-33" d="M1349.15,768.06c0-2.28,1.2-26.89,38.6-29.08,0,0-18.35,2.64-21.34,10.81,0,0,12.3-10.3,22.58-7.33s16.71,20.7,16.91,26.58-5,25-11.45,26.75a19.85,19.85,0,0,1-7.84.2,89.24,89.24,0,0,1,5.24,8.85c15.67,30.3,2.15,66-10.57,63-8.16-1.93-13.12,12.22-13.12,12.22l-78.48-67.49S1317.17,752,1349.15,768.06Z"/><path class="cls-22" d="M1299.82,973.13c8.7,6,19.61,11,33.31,14.18,51.34,11.86,71-31.53,78.4-61.32a44.1,44.1,0,0,0-17.39-5.34c-3.71-.44-7.61-.73-10.84-.89-5.77-4.42-14.36-22.49-16.26-50.55l-2.42.65-40.46,11.08s1.86,12.86,2.76,25c.71,9.52.82,18.61-1,20.83-3.15.69-5,1.14-5,1.14l0,0A261.1,261.1,0,0,0,1299.82,973.13Z"/><path class="cls-21" d="M1324.16,880.94s1.86,12.85,2.76,25c22.93-2.29,33.56-24.12,37.71-36.09Z"/><path class="cls-22" d="M1323.69,900.25s52.78-13.57,43.83-46.31-8.17-56.53-42.25-49.26-37.18,21.55-36.85,33.21S1309.73,902.93,1323.69,900.25Z"/><path class="cls-33" d="M1285,819.26c5.41-12.07,12.15-11.6,16.4-9.58,24.38-23.68,49.3-5.42,49.3-5.42,10,22.52,30.59,31.32,30.59,31.32s-8,8.55-31.59,8.93c-7.22.12-14.56-3-21.27-7.43a126.82,126.82,0,0,0,28.17,20c-29.72-4.95-50.38-38.72-52.5-42.31-2.42,3.76-7,11.75-7.27,18.42-.33,9.05,3.21,26.53-2,27.32C1294.87,860.49,1276.86,837.37,1285,819.26Z"/><path class="cls-22" d="M1308.51,925.19s88.64-21.52,127.18,10.27l-19.26,268.63-173.36-41.88s4.88-17,38.12-62.2S1300,988.51,1308.51,925.19Z"/><path class="cls-15" d="M1360.18,1174.19s-.1.91-.28,2.65c-.08.74-.18,1.64-.29,2.7-.74,7-2.16,20.32-4,37.69-4.75,45.56-12.22,118.73-17.31,176.49-4,45.16-6.5,80.9-5.14,86.64,4.11,17.27,0,223.71,0,223.71-14.73,7.07-37.07,0-37.07,0s-39.25-186-33.75-211.89-3.68-47.93-3.68-47.93c-30.47-141.91-27.13-220.57-21.08-258.22a159,159,0,0,1,5.21-23,46.8,46.8,0,0,1,2.09-5.65C1312.11,1139.3,1360.18,1174.19,1360.18,1174.19Z"/><path class="cls-10" d="M1447.64,1012.08c-4.27,32.32-21.39,71.86-27.51,93.15,0,0,10.22,73.91.47,94.2-1.11,2.31-2.48,3.93-4.16,4.66-36.15,15.75-176.93.46-182.87-44.95-2.16-16.5,53.62-74.54,56.87-81.59,1.35-2.91,2.79-12.35-3.75-31.92-9.27,28.58-60.44,20.36-60.44,20.36,6-10.27,21-81.36,37.68-113.45,12.55-24.12,46.09-27.61,46.09-27.61s14,22.13,47.71,19,39.92-23.8,39.92-23.8,29.94,4,39.16,11.42C1438.41,932.83,1453.26,969.74,1447.64,1012.08Z"/><path class="cls-11" d="M1420.13,1105.23s10.22,73.91.47,94.2c-26.34-13.22-47.1-49-42.3-88.82,3.54-29.44,8.8-36.16,24.56-53,11.57-12.38,38.34-13.08,36.24-7.19C1432.85,1068,1423.36,1094,1420.13,1105.23Z"/><polygon class="cls-27" points="1310.2 1017.84 1370.56 1114.67 1267.85 1114.67 1210.35 1019.93 1310.2 1017.84"/><polygon class="cls-28" points="1367.42 1109.81 1368.46 1106.43 1311.34 1014.79 1310.2 1017.84 1367.42 1109.81"/><polygon class="cls-16" points="1311.34 1014.79 1214.59 1017.54 1210.35 1019.93 1310.2 1017.84 1311.34 1014.79"/><polygon class="cls-26" points="1210.35 1019.93 1156.07 990.55 1219.34 1089.91 1267.85 1114.67 1210.35 1019.93"/><path class="cls-22" d="M1497.57,1087.79c-5.81,2.66-20.74,20.23-26.06,22-24,8-125.87-13.31-125.87-13.31l3.15-17.85s100,2.65,111-.29c2.07-.56,12.88-17.46,17-19.89Z"/><path class="cls-22" d="M1348.8,1078.64s-12.07-9.82-20.22-7.59-20.14,12.53-24.59,15-16.56,11.17-10.43,16.45,25.23.74,32.79-3.3,19.29-2.67,19.29-2.67Z"/><path class="cls-22" d="M1330.89,1070.73s-14.66-1.75-18.66-1.67-2.92,1-.71,4.06,9.85,4.3,10.2,5.38S1330.89,1070.73,1330.89,1070.73Z"/><path class="cls-10" d="M1397.65,920.12s43.48,5.16,55.45,23.8c15.14,23.58,50.86,117.46,49.71,141.12,0,0-26.12,44.45-115.68,37.33,0,0-9.32-32.91,9.52-43.77,0,0,46-8.18,51.3-12.85l-37.5-68.16Z"/><path class="cls-22" d="M1224.25,1055.33c-1.35-5.48-13.29-2.06-17.32,1.09a16.87,16.87,0,0,0-3.06,3.6c-.12-.91-.23-1.79-.29-2.48-.23-2.57-3.22-7.18-4-3.73s-2,18-2,18c-.14,11.68,7.36,16.5,12.19,12.7S1225.6,1060.81,1224.25,1055.33Z"/><rect class="cls-34" x="78.14" y="1726.59" width="2745.48" height="9.37" rx="3.53"/></g></g></svg>